<?xml version="1.0" encoding="UTF-8" standalone="no"?>
<svg
   xmlns:dc="http://purl.org/dc/elements/1.1/"
   xmlns:cc="http://creativecommons.org/ns#"
   xmlns:rdf="http://www.w3.org/1999/02/22-rdf-syntax-ns#"
   xmlns:svg="http://www.w3.org/2000/svg"
   xmlns="http://www.w3.org/2000/svg"
   xmlns:sodipodi="http://sodipodi.sourceforge.net/DTD/sodipodi-0.dtd"
   xmlns:inkscape="http://www.inkscape.org/namespaces/inkscape"
   inkscape:version="1.0 (4035a4fb49, 2020-05-01)"
   sodipodi:docname="calculator.svg"
   xml:space="preserve"
   style="enable-background:new 0 0 480 480;"
   viewBox="0 0 480 480"
   y="0px"
   x="0px"
   id="Layer_1"
   version="1.1"><metadata
   id="metadata162"><rdf:RDF><cc:Work
       rdf:about=""><dc:format>image/svg+xml</dc:format><dc:type
         rdf:resource="http://purl.org/dc/dcmitype/StillImage" /></cc:Work></rdf:RDF></metadata><defs
   id="defs160" /><sodipodi:namedview
   inkscape:current-layer="Layer_1"
   inkscape:window-maximized="1"
   inkscape:window-y="0"
   inkscape:window-x="0"
   inkscape:cy="71.468624"
   inkscape:cx="240"
   inkscape:zoom="1.6887897"
   showgrid="false"
   id="namedview158"
   inkscape:window-height="844"
   inkscape:window-width="1600"
   inkscape:pageshadow="2"
   inkscape:pageopacity="0"
   guidetolerance="10"
   gridtolerance="10"
   objecttolerance="10"
   borderopacity="1"
   bordercolor="#666666"
   pagecolor="#ffffff" />
<path
   id="path105"
   d="m 228.4255,208.11491 c 0,9.84092 -9.69145,18.75924 -20.38546,18.75924 H 48.298283 c -10.694009,0 -20.385455,-8.91832 -20.385455,-18.75924 V 61.116214 c 0,-9.840912 9.691446,-18.759246 20.385455,-18.759246 H 208.04004 c 10.69401,0 20.38546,8.918334 20.38546,18.759246 z"
   style="fill:#08446d;stroke-width:0.400726" />
<path
   id="path107"
   d="m 208.04004,42.356968 c 10.69401,0 20.38546,8.918334 20.38546,18.759246 V 208.11491 c 0,9.84092 -9.69145,18.75924 -20.38546,18.75924 H 48.298283 c -10.694009,0 -20.385455,-8.91832 -20.385455,-18.75924"
   style="fill:#00233f;stroke-width:0.400726" />
<g
   transform="matrix(0.41773473,0,0,0.3844108,27.912828,42.356968)"
   id="g119">
	<path
   id="path109"
   d="m 136,200 c 0,4.8 -3.2,8 -8,8 v 0 c -4.8,0 -8,-3.2 -8,-8 V 72 c 0,-4.8 3.2,-8 8,-8 v 0 c 4.8,0 8,3.2 8,8 z"
   style="fill:#ffffff" />
	<path
   id="path111"
   d="M 68.8,144 C 64,144 60,140.8 60,136 v 0 c 0,-4.8 4,-8 8.8,-8 h 124 c 4.8,0 8.8,3.2 8.8,8 v 0 c 0,4.8 -4,8 -8.8,8 z"
   style="fill:#ffffff" />
	<path
   id="path113"
   d="m 287.2,144 c -4.8,0 -8.8,-3.2 -8.8,-8 v 0 c 0,-4.8 4,-8 8.8,-8 h 124 c 4.8,0 8.8,3.2 8.8,8 v 0 c 0,4.8 -4,8 -8.8,8 z"
   style="fill:#ffffff" />
	<path
   id="path115"
   d="m 92.8,385.6 c -3.2,3.2 -8.8,3.2 -12,0 v 0 c -3.2,-3.2 -3.2,-8.8 0,-12 l 87.2,-88 c 3.2,-3.2 8.8,-3.2 12,0 v 0 c 3.2,3.2 3.2,8.8 0,12 z"
   style="fill:#ffffff" />
	<path
   id="path117"
   d="m 80.8,297.6 c -3.2,-3.2 -3.2,-8.8 0,-12 v 0 c 3.2,-3.2 8.8,-3.2 12,0 l 87.2,87.2 c 3.2,3.2 3.2,8.8 0,12 v 0 c -3.2,3.2 -8.8,3.2 -12,0 z"
   style="fill:#ffffff" />
</g>
<g
   transform="matrix(0.41773473,0,0,0.3844108,27.912828,42.356968)"
   id="g125">
	<path
   id="path121"
   d="m 287.2,376 c -4.8,0 -8.8,-3.2 -8.8,-8 v 0 c 0,-4.8 4,-8 8.8,-8 h 124 c 4.8,0 8.8,3.2 8.8,8 v 0 c 0,4.8 -4,8 -8.8,8 z"
   style="fill:#e8961f" />
	<path
   id="path123"
   d="m 287.2,312 c -4.8,0 -8.8,-3.2 -8.8,-8 v 0 c 0,-4.8 4,-8 8.8,-8 h 124 c 4.8,0 8.8,3.2 8.8,8 v 0 c 0,4.8 -4,8 -8.8,8 z"
   style="fill:#e8961f" />
</g>
<g
   id="g127">
</g>
<g
   id="g129">
</g>
<g
   id="g131">
</g>
<g
   id="g133">
</g>
<g
   id="g135">
</g>
<g
   id="g137">
</g>
<g
   id="g139">
</g>
<g
   id="g141">
</g>
<g
   id="g143">
</g>
<g
   id="g145">
</g>
<g
   id="g147">
</g>
<g
   id="g149">
</g>
<g
   id="g151">
</g>
<g
   id="g153">
</g>
<g
   id="g155">
</g>
<g
   style="fill:#08446d;fill-opacity:1"
   transform="matrix(2.695352,0,0,2.635973,110.94082,145.18689)"
   id="g406"><g
     style="fill:#08446d;fill-opacity:1"
     id="g344">
	<path
   style="fill:#08446d;fill-opacity:1"
   d="M 38.914,0 H 6.5 v 60 h 47 V 14.586 Z M 39.5,3.414 50.086,14 H 39.5 Z M 8.5,58 V 2 h 29 v 14 h 14 v 42 z"
   id="path330" />
	<path
   style="fill:#08446d;fill-opacity:1"
   d="m 42.5,21 h -16 c -0.552,0 -1,0.447 -1,1 0,0.553 0.448,1 1,1 h 16 c 0.552,0 1,-0.447 1,-1 0,-0.553 -0.448,-1 -1,-1 z"
   id="path332" />
	<path
   style="fill:#08446d;fill-opacity:1"
   d="m 22.875,18.219 -4.301,3.441 -1.367,-1.367 c -0.391,-0.391 -1.023,-0.391 -1.414,0 -0.391,0.391 -0.391,1.023 0,1.414 l 2,2 C 17.987,23.901 18.243,24 18.5,24 c 0.22,0 0.441,-0.072 0.624,-0.219 l 5,-4 c 0.432,-0.346 0.501,-0.975 0.156,-1.406 -0.344,-0.432 -0.974,-0.501 -1.405,-0.156 z"
   id="path334" />
	<path
   style="fill:#08446d;fill-opacity:1"
   d="m 42.5,32 h -16 c -0.552,0 -1,0.447 -1,1 0,0.553 0.448,1 1,1 h 16 c 0.552,0 1,-0.447 1,-1 0,-0.553 -0.448,-1 -1,-1 z"
   id="path336" />
	<path
   style="fill:#08446d;fill-opacity:1"
   d="m 22.875,29.219 -4.301,3.441 -1.367,-1.367 c -0.391,-0.391 -1.023,-0.391 -1.414,0 -0.391,0.391 -0.391,1.023 0,1.414 l 2,2 C 17.987,34.901 18.243,35 18.5,35 c 0.22,0 0.441,-0.072 0.624,-0.219 l 5,-4 c 0.432,-0.346 0.501,-0.975 0.156,-1.406 -0.344,-0.432 -0.974,-0.501 -1.405,-0.156 z"
   id="path338" />
	<path
   style="fill:#08446d;fill-opacity:1"
   d="m 42.5,43 h -16 c -0.552,0 -1,0.447 -1,1 0,0.553 0.448,1 1,1 h 16 c 0.552,0 1,-0.447 1,-1 0,-0.553 -0.448,-1 -1,-1 z"
   id="path340" />
	<path
   style="fill:#08446d;fill-opacity:1"
   d="m 22.875,40.219 -4.301,3.441 -1.367,-1.367 c -0.391,-0.391 -1.023,-0.391 -1.414,0 -0.391,0.391 -0.391,1.023 0,1.414 l 2,2 C 17.987,45.901 18.243,46 18.5,46 c 0.22,0 0.441,-0.072 0.624,-0.219 l 5,-4 c 0.432,-0.346 0.501,-0.975 0.156,-1.406 -0.344,-0.432 -0.974,-0.501 -1.405,-0.156 z"
   id="path342" />
</g><g
     style="fill:#08446d;fill-opacity:1"
     id="g346">
</g><g
     style="fill:#08446d;fill-opacity:1"
     id="g348">
</g><g
     style="fill:#08446d;fill-opacity:1"
     id="g350">
</g><g
     style="fill:#08446d;fill-opacity:1"
     id="g352">
</g><g
     style="fill:#08446d;fill-opacity:1"
     id="g354">
</g><g
     style="fill:#08446d;fill-opacity:1"
     id="g356">
</g><g
     style="fill:#08446d;fill-opacity:1"
     id="g358">
</g><g
     style="fill:#08446d;fill-opacity:1"
     id="g360">
</g><g
     style="fill:#08446d;fill-opacity:1"
     id="g362">
</g><g
     style="fill:#08446d;fill-opacity:1"
     id="g364">
</g><g
     style="fill:#08446d;fill-opacity:1"
     id="g366">
</g><g
     style="fill:#08446d;fill-opacity:1"
     id="g368">
</g><g
     style="fill:#08446d;fill-opacity:1"
     id="g370">
</g><g
     style="fill:#08446d;fill-opacity:1"
     id="g372">
</g><g
     style="fill:#08446d;fill-opacity:1"
     id="g374">
</g></g><path
   id="path426"
   d=""
   style="fill:#e8961f;fill-opacity:1;stroke-width:0.365297" /><path
   id="path428"
   d=""
   style="fill:#e8961f;fill-opacity:1;stroke-width:0.365297" /><path
   id="path434"
   d="m 192.74597,234.99852 c 6.09225,-0.16896 16.06136,-0.16896 22.15358,0 6.09222,0.16897 1.10768,0.30715 -11.07679,0.30715 -12.18447,0 -17.16902,-0.13813 -11.07679,-0.30715 z"
   style="fill:#e8961f;fill-opacity:1;stroke-width:0.973698" /><path
   id="path436"
   d="m 218.8515,235.02636 c 1.49665,-0.22142 3.71201,-0.21536 4.92301,0.0132 1.21102,0.22854 -0.0135,0.40963 -2.72117,0.40241 -2.70767,-0.008 -3.69849,-0.19428 -2.20184,-0.41557 z"
   style="fill:#e8961f;fill-opacity:1;stroke-width:0.973698" /><path
   id="path438"
   d="m 216.438,235.05955 c 0.71077,-0.27815 1.55996,-0.24383 1.88715,0.0759 0.32717,0.31998 -0.25444,0.54755 -1.29228,0.50574 -1.14701,-0.0461 -1.38032,-0.27438 -0.59487,-0.58176 z"
   style="fill:#e8961f;fill-opacity:1;stroke-width:0.973698" /><path
   id="path440"
   d="m 181.27956,233.87394 c -0.75583,-0.46805 -1.10205,-1.54468 -0.76936,-2.39254 0.53042,-1.35178 3.4,-1.54155 23.31256,-1.54155 19.91256,0 22.78214,0.18979 23.31256,1.54155 0.33268,0.84786 -0.0135,1.92449 -0.76937,2.39254 -1.793,1.11032 -43.29339,1.11032 -45.08639,0 z"
   style="fill:#e8961f;fill-opacity:1;stroke-width:0.973698" /><path
   id="path444"
   d="m 180.52993,262.15049 c -0.32953,-0.83979 -0.17735,-1.93941 0.33824,-2.4436 0.55479,-0.54256 10.15245,-0.8109 23.51506,-0.65746 21.83294,0.25068 22.57772,0.32277 22.57772,2.18509 0,1.86324 -0.74453,1.93422 -22.91596,2.18435 -20.16905,0.22749 -22.98777,0.0754 -23.51506,-1.26838 z"
   style="fill:#e8961f;fill-opacity:1;stroke-width:0.973698" /><path
   id="path450"
   d="m 180.37972,203.21902 c 0.30479,-1.54776 2.21517,-1.68507 23.44304,-1.68507 21.22786,0 23.13825,0.13733 23.44304,1.68507 0.30864,1.5673 -1.33029,1.6851 -23.44304,1.6851 -22.11275,0 -23.75169,-0.11783 -23.44304,-1.6851 z"
   style="fill:#e8961f;fill-opacity:1;stroke-width:0.973698" /><path
   id="path454"
   d=""
   style="fill:#e8961f;fill-opacity:1;stroke-width:0.365297" /><path
   id="path458"
   d=""
   style="fill:#e8961f;fill-opacity:1;stroke-width:0.365297" /><path
   id="path462"
   d="m 156.75493,204.61756 c -1.73082,-1.74641 -3.14696,-3.67075 -3.14696,-4.27628 0,-2.33258 2.242,-2.28225 4.79264,0.10754 l 2.66335,2.49548 6.06282,-4.79755 c 6.31928,-5.00055 9.15873,-5.97367 9.08177,-3.11248 -0.0431,1.5988 -13.52524,12.75859 -15.41374,12.75859 -0.4911,0 -2.30903,-1.42889 -4.03988,-3.1753 z"
   style="fill:#e8961f;fill-opacity:1;stroke-width:0.973698" /><path
   id="path464"
   d="m 156.78353,233.53379 c -1.74656,-1.7623 -3.17556,-3.69959 -3.17556,-4.30512 0,-2.33258 2.242,-2.28228 4.79264,0.10755 l 2.66335,2.49547 6.06282,-4.79758 c 6.34297,-5.01926 9.12708,-5.96238 9.12708,-3.09181 0,1.63183 -12.3998,11.95272 -15.04914,12.52607 -0.68511,0.14814 -2.67466,-1.1723 -4.42119,-2.93458 z"
   style="fill:#e8961f;fill-opacity:1;stroke-width:0.973698" /><path
   id="path466"
   d="m 156.2537,262.86692 c -4.67856,-4.7758 -2.90726,-8.63979 2.07944,-4.53619 l 2.92271,2.40512 6.18311,-4.83372 c 6.16144,-4.81677 8.06845,-5.41766 8.60556,-2.71157 0.33222,1.67379 -13.07823,12.37705 -15.50758,12.37705 -0.90062,0 -2.8281,-1.21531 -4.28324,-2.70069 z"
   style="fill:#e8961f;fill-opacity:1;stroke-width:0.973698" /><path
   id="path470"
   d="m 128.99289,224.16238 v -78.95883 h 43.08541 43.08542 l 19.92922,19.5076 19.92921,19.50757 v 59.45123 59.45126 h -63.01463 -63.01463 z m 121.10623,18.29534 v -55.84891 h -18.70747 -18.70746 v -18.30628 -18.30625 l -39.63028,0.25173 -39.63029,0.25174 -0.25445,72.69989 c -0.14015,39.98495 -0.0431,73.24154 0.21536,73.90354 0.36854,0.94413 13.0013,1.20364 58.59232,1.20364 h 58.12251 z m -3.93842,-60.4107 c 0,-0.94423 -27.82226,-28.17726 -28.7869,-28.17726 -0.41317,0 -0.75119,6.49968 -0.75119,14.44371 v 14.44368 h 14.76904 c 8.12299,0 14.76905,-0.31956 14.76905,-0.71013 z"
   style="fill:#e8961f;fill-opacity:1;stroke-width:0.973698" /><path
   id="path474"
   d="m 145.29989,96.335165 c -1.21997,-1.219972 -1.17554,-2.217037 0.15237,-3.418771 0.97439,-0.881817 3.79579,-0.979984 28.16557,-0.979984 17.53643,0 27.48644,0.216065 28.22807,0.612974 1.28027,0.685183 1.52261,2.917886 0.43478,4.005718 -0.53239,0.532389 -7.64895,0.710568 -28.38043,0.710568 -24.36489,0 -27.781,-0.111142 -28.60036,-0.930505 z"
   style="fill:#e8961f;fill-opacity:1;stroke-width:0.59214" /><path
   id="path476"
   d="m 61.991415,190.29363 c -2.146434,-1.73807 -1.141922,-3.23062 7.62029,-11.32253 4.315221,-3.98511 7.845856,-7.44401 7.845856,-7.68645 0,-0.24244 -3.596098,-3.72568 -7.991328,-7.74053 -4.39523,-4.01486 -8.140474,-7.76966 -8.322765,-8.34401 -0.570858,-1.79861 0.770258,-3.45756 2.795145,-3.45756 1.479601,0 2.909269,0.98609 7.381245,5.09107 3.050421,2.80008 6.814666,6.23151 8.36499,7.62538 l 2.818772,2.53432 8.241296,-7.62538 c 8.800323,-8.14264 10.530104,-9.03205 12.393094,-6.37226 1.31704,1.88034 0.52851,2.94892 -7.992051,10.83037 -4.19211,3.87767 -7.622018,7.24714 -7.622018,7.4877 0,0.24056 3.579496,3.71383 7.954435,7.71837 4.37494,4.00454 8.075964,7.74573 8.224504,8.31375 0.41883,1.60161 -1.22947,3.48011 -3.0374,3.46159 -1.208054,-0.0124 -3.604662,-1.86235 -9.88259,-7.62848 l -8.287782,-7.61213 -5.817979,5.40795 c -7.870052,7.3154 -11.622891,10.44114 -12.535885,10.44114 -0.420115,0 -1.387538,-0.50504 -2.149829,-1.12231 z"
   style="fill:#e8961f;fill-opacity:1;stroke-width:0.59214" /><path
   id="path478"
   d="m 79.233981,120.95127 c -1.101173,-1.10117 -1.18428,-1.9738 -1.18428,-12.43494 V 97.26567 H 66.545266 c -9.669058,0 -11.652885,-0.148449 -12.434941,-0.930506 -1.18108,-1.181079 -1.18108,-2.287169 0,-3.468248 0.782056,-0.782056 2.765883,-0.930506 12.434941,-0.930506 H 78.049701 V 80.685749 c 0,-10.46114 0.08311,-11.333768 1.18428,-12.43494 1.425236,-1.425236 2.273925,-1.480747 4.013225,-0.262494 1.283223,0.898805 1.316035,1.208835 1.316035,12.434941 V 91.93641 H 97.03711 c 7.46618,0 12.93368,0.246081 13.61922,0.612974 1.28028,0.685183 1.52262,2.917886 0.43478,4.005718 -0.5092,0.509205 -4.36867,0.710568 -13.619216,0.710568 H 84.563241 v 11.45496 c 0,10.34536 -0.104893,11.54988 -1.082871,12.43494 -1.439055,1.30232 -2.805507,1.23658 -4.246389,-0.2043 z"
   style="fill:#e8961f;fill-opacity:1;stroke-width:0.59214" /><path
   id="path484"
   d="m 40.897036,225.1784 c -6.171117,-2.37189 -12.597794,-10.18488 -12.579606,-15.29317 0.0071,-2.00167 0.934261,-2.95592 19.016117,-19.57239 10.454743,-9.60747 20.409737,-18.72484 22.122209,-20.26082 l 3.113584,-2.7927 2.282047,1.97268 2.282047,1.97267 -5.01324,4.66893 c -2.757281,2.56791 -6.406707,5.96559 -8.109833,7.55041 -3.622365,3.37072 -4.171985,4.63789 -2.872106,6.62175 0.704541,1.07527 1.479316,1.45136 2.989892,1.45136 1.794363,0 3.019241,-0.91328 10.211825,-7.61405 l 8.172898,-7.61405 5.614272,5.28067 c 10.672584,10.03841 12.797638,11.29453 14.996738,8.86456 2.19317,-2.42343 1.4084,-3.72887 -6.865873,-11.42119 -4.315221,-4.01173 -7.914586,-7.4423 -7.998592,-7.62352 -0.08401,-0.18121 3.446628,-3.64561 7.845855,-7.69867 6.9449,-6.39842 7.99859,-7.60954 7.99859,-9.19367 0,-2.36075 -0.93969,-3.2456 -3.44673,-3.2456 -1.776221,0 -2.999275,0.91127 -9.934194,7.40175 -4.349724,4.07096 -8.128975,7.40175 -8.398334,7.40175 -0.26936,0 -1.345669,-0.88309 -2.391799,-1.96243 l -1.902054,-1.96242 34.797701,-32.06481 34.7977,-32.064814 26.66258,-0.02082 c 23.15063,-0.01807 26.83593,-0.142233 27.97862,-0.942604 1.59307,-1.115826 1.7062,-3.278689 0.24087,-4.604797 -0.95227,-0.861793 -3.72097,-0.990731 -24.22204,-1.128019 l -23.14689,-0.155004 26.09377,-23.981672 26.09377,-23.981671 3.30951,0.03382 c 6.11896,0.06253 12.88686,4.789627 16.05942,11.216842 l 1.46144,2.9607 0.16741,50.020809 0.16741,50.02081 -6.44835,-6.35435 -6.44834,-6.35435 -43.45883,0.1519 -43.45883,0.15191 -0.15211,40.70962 -0.15212,40.70963 -42.185895,-0.0308 c -40.830474,-0.0298 -42.285647,-0.0692 -45.290509,-1.22413 z"
   style="fill:#000000;fill-opacity:0;stroke-width:0.59214" /><path
   id="path486"
   d="m 40.897036,225.1784 c -6.171117,-2.37189 -12.597794,-10.18488 -12.579606,-15.29317 0.0071,-2.00167 0.934261,-2.95592 19.016117,-19.57239 10.454743,-9.60747 20.409737,-18.72484 22.122209,-20.26082 l 3.113584,-2.7927 2.282047,1.97268 2.282047,1.97267 -5.01324,4.66893 c -2.757281,2.56791 -6.406707,5.96559 -8.109833,7.55041 -3.622365,3.37072 -4.171985,4.63789 -2.872106,6.62175 0.704541,1.07527 1.479316,1.45136 2.989892,1.45136 1.794363,0 3.019241,-0.91328 10.211825,-7.61405 l 8.172898,-7.61405 5.614272,5.28067 c 10.672584,10.03841 12.797638,11.29453 14.996738,8.86456 2.19317,-2.42343 1.4084,-3.72887 -6.865873,-11.42119 -4.315221,-4.01173 -7.914586,-7.4423 -7.998592,-7.62352 -0.08401,-0.18121 3.446628,-3.64561 7.845855,-7.69867 6.9449,-6.39842 7.99859,-7.60954 7.99859,-9.19367 0,-2.36075 -0.93969,-3.2456 -3.44673,-3.2456 -1.776221,0 -2.999275,0.91127 -9.934194,7.40175 -4.349724,4.07096 -8.128975,7.40175 -8.398334,7.40175 -0.26936,0 -1.345669,-0.88309 -2.391799,-1.96243 l -1.902054,-1.96242 34.797701,-32.06481 34.7977,-32.064814 26.66258,-0.02082 c 23.15063,-0.01807 26.83593,-0.142233 27.97862,-0.942604 1.59307,-1.115826 1.7062,-3.278689 0.24087,-4.604797 -0.95227,-0.861793 -3.72097,-0.990731 -24.22204,-1.128019 l -23.14689,-0.155004 26.09377,-23.981672 26.09377,-23.981671 3.30951,0.03382 c 6.11896,0.06253 12.88686,4.789627 16.05942,11.216842 l 1.46144,2.9607 0.16741,50.020809 0.16741,50.02081 -6.44835,-6.35435 -6.44834,-6.35435 -43.45883,0.1519 -43.45883,0.15191 -0.15211,40.70962 -0.15212,40.70963 -42.185895,-0.0308 c -40.830474,-0.0298 -42.285647,-0.0692 -45.290509,-1.22413 z"
   style="fill:#000000;fill-opacity:0;stroke-width:0.59214" /><path
   id="path488"
   d="m 40.897036,225.1784 c -6.171117,-2.37189 -12.597794,-10.18488 -12.579606,-15.29317 0.0071,-2.00167 0.934261,-2.95592 19.016117,-19.57239 10.454743,-9.60747 20.409737,-18.72484 22.122209,-20.26082 l 3.113584,-2.7927 2.282047,1.97268 2.282047,1.97267 -5.01324,4.66893 c -2.757281,2.56791 -6.406707,5.96559 -8.109833,7.55041 -3.622365,3.37072 -4.171985,4.63789 -2.872106,6.62175 0.704541,1.07527 1.479316,1.45136 2.989892,1.45136 1.794363,0 3.019241,-0.91328 10.211825,-7.61405 l 8.172898,-7.61405 5.614272,5.28067 c 10.672584,10.03841 12.797638,11.29453 14.996738,8.86456 2.19317,-2.42343 1.4084,-3.72887 -6.865873,-11.42119 -4.315221,-4.01173 -7.914586,-7.4423 -7.998592,-7.62352 -0.08401,-0.18121 3.446628,-3.64561 7.845855,-7.69867 6.9449,-6.39842 7.99859,-7.60954 7.99859,-9.19367 0,-2.36075 -0.93969,-3.2456 -3.44673,-3.2456 -1.776221,0 -2.999275,0.91127 -9.934194,7.40175 -4.349724,4.07096 -8.128975,7.40175 -8.398334,7.40175 -0.26936,0 -1.345669,-0.88309 -2.391799,-1.96243 l -1.902054,-1.96242 34.797701,-32.06481 34.7977,-32.064814 26.66258,-0.02082 c 23.15063,-0.01807 26.83593,-0.142233 27.97862,-0.942604 1.59307,-1.115826 1.7062,-3.278689 0.24087,-4.604797 -0.95227,-0.861793 -3.72097,-0.990731 -24.22204,-1.128019 l -23.14689,-0.155004 26.09377,-23.981672 26.09377,-23.981671 3.30951,0.03382 c 6.11896,0.06253 12.88686,4.789627 16.05942,11.216842 l 1.46144,2.9607 0.16741,50.020809 0.16741,50.02081 -6.44835,-6.35435 -6.44834,-6.35435 -43.45883,0.1519 -43.45883,0.15191 -0.15211,40.70962 -0.15212,40.70963 -42.185895,-0.0308 c -40.830474,-0.0298 -42.285647,-0.0692 -45.290509,-1.22413 z"
   style="fill:#000000;fill-opacity:0;stroke-width:0.59214" /><path
   id="path490"
   d="m 160.54563,97.495352 c 7.43139,-0.09402 19.42223,-0.09391 26.6463,2.36e-4 7.22408,0.09415 1.14385,0.17107 -13.51161,0.170941 -14.65547,-1.3e-4 -20.56608,-0.07716 -13.13469,-0.171177 z"
   style="fill:#000000;fill-opacity:0;stroke-width:0.59214" /><path
   id="path492"
   d="m 145.7017,96.36255 c -1.05312,-0.424941 -0.9159,-2.277786 0.23967,-3.236208 0.79913,-0.662792 5.99552,-0.812679 28.17452,-0.812679 25.97428,0 27.23136,0.05017 28.01208,1.118043 0.5838,0.798536 0.64878,1.433104 0.22736,2.220525 -0.56307,1.052107 -1.85396,1.100346 -28.25174,1.055734 -15.21394,-0.02571 -27.99479,-0.181148 -28.40189,-0.345415 z"
   style="fill:#ffffff;fill-opacity:0;stroke-width:0.59214" /><path
   id="path494"
   d="m 145.7017,96.36255 c -1.05312,-0.424941 -0.9159,-2.277786 0.23967,-3.236208 0.79913,-0.662792 5.99552,-0.812679 28.17452,-0.812679 25.97428,0 27.23136,0.05017 28.01208,1.118043 0.5838,0.798536 0.64878,1.433104 0.22736,2.220525 -0.56307,1.052107 -1.85396,1.100346 -28.25174,1.055734 -15.21394,-0.02571 -27.99479,-0.181148 -28.40189,-0.345415 z"
   style="fill:#ffffff;fill-opacity:0;stroke-width:0.59214" /><path
   id="path496"
   d="m 40.897036,225.1784 c -6.171117,-2.37189 -12.597794,-10.18488 -12.579606,-15.29317 0.0071,-2.00167 0.934261,-2.95592 19.016117,-19.57239 10.454743,-9.60747 20.409737,-18.72484 22.122209,-20.26082 l 3.113584,-2.7927 2.282047,1.97268 2.282047,1.97267 -5.01324,4.66893 c -2.757281,2.56791 -6.406707,5.96559 -8.109833,7.55041 -3.622365,3.37072 -4.171985,4.63789 -2.872106,6.62175 0.704541,1.07527 1.479316,1.45136 2.989892,1.45136 1.794363,0 3.019241,-0.91328 10.211825,-7.61405 l 8.172898,-7.61405 5.614272,5.28067 c 10.672584,10.03841 12.797638,11.29453 14.996738,8.86456 2.19317,-2.42343 1.4084,-3.72887 -6.865873,-11.42119 -4.315221,-4.01173 -7.914586,-7.4423 -7.998592,-7.62352 -0.08401,-0.18121 3.446628,-3.64561 7.845855,-7.69867 6.9449,-6.39842 7.99859,-7.60954 7.99859,-9.19367 0,-2.36075 -0.93969,-3.2456 -3.44673,-3.2456 -1.776221,0 -2.999275,0.91127 -9.934194,7.40175 -4.349724,4.07096 -8.128975,7.40175 -8.398334,7.40175 -0.26936,0 -1.345669,-0.88309 -2.391799,-1.96243 l -1.902054,-1.96242 34.797701,-32.06481 34.7977,-32.064814 26.66258,-0.02082 c 23.15063,-0.01807 26.83593,-0.142233 27.97862,-0.942604 1.59307,-1.115826 1.7062,-3.278689 0.24087,-4.604797 -0.95227,-0.861793 -3.72097,-0.990731 -24.22204,-1.128019 l -23.14689,-0.155004 26.09377,-23.981672 26.09377,-23.981671 3.30951,0.03382 c 6.11896,0.06253 12.88686,4.789627 16.05942,11.216842 l 1.46144,2.9607 0.16741,50.020809 0.16741,50.02081 -6.44835,-6.35435 -6.44834,-6.35435 -43.45883,0.1519 -43.45883,0.15191 -0.15211,40.70962 -0.15212,40.70963 -42.185895,-0.0308 c -40.830474,-0.0298 -42.285647,-0.0692 -45.290509,-1.22413 z"
   style="fill:#ffffff;fill-opacity:0;stroke-width:0.59214" /><path
   id="path498"
   d="m 28.309938,133.10403 c 0,-68.17784 0.08553,-74.879651 0.989694,-77.545601 1.414064,-4.169417 7.048464,-9.701503 11.62108,-11.410053 l 3.432604,-1.282586 81.365144,0.150125 81.36514,0.150125 -26.08445,23.981671 -26.08445,23.981672 -3.64427,0.151457 c -4.95596,0.205972 -6.16574,0.547108 -6.91676,1.950391 -0.84938,1.587092 -0.23106,3.35477 1.49224,4.266051 1.34237,0.709845 0.0922,1.937326 -33.0176,32.417268 -18.927044,17.42373 -34.561729,31.7444 -34.743743,31.82372 -0.182015,0.0793 -2.956431,-2.25222 -6.165369,-5.18122 -4.930799,-4.50065 -6.143847,-5.32545 -7.832205,-5.32545 -2.305549,0 -4.147851,2.12087 -3.53088,4.06477 0.202853,0.63913 2.899971,3.48549 5.993595,6.32523 3.093624,2.83974 5.547765,5.34612 5.453647,5.56973 -0.09412,0.22361 -8.831173,8.35579 -19.415676,18.07151 -10.584503,9.71572 -20.377019,18.74578 -21.761146,20.06679 l -2.516595,2.40185 z m 54.663846,-10.97594 c 0.711363,-0.37443 1.489154,-0.97397 1.728424,-1.33231 0.239271,-0.35835 0.439119,-5.64772 0.444106,-11.75416 l 0.0091,-11.102627 h 12.303184 c 10.176982,0 12.530612,-0.1593 13.619222,-0.921787 1.55837,-1.091526 1.70068,-3.000978 0.33605,-4.508883 -0.89109,-0.984638 -2.12655,-1.08287 -13.619221,-1.08287 H 85.155381 V 80.174792 c 0,-10.461141 -0.08311,-11.333768 -1.18428,-12.434941 -1.422683,-1.422683 -2.834108,-1.503131 -4.605366,-0.262493 -1.283223,0.898805 -1.316034,1.208834 -1.316034,12.434941 V 91.425453 H 66.50297 c -10.757211,0 -11.627707,0.08098 -12.731011,1.18428 -1.49856,1.49856 -1.49856,2.64642 0,4.14498 1.103304,1.103304 1.9738,1.18428 12.731011,1.18428 h 11.546731 v 11.513157 c 0,11.2261 0.03281,11.53613 1.316034,12.43494 1.573836,1.10236 1.926813,1.12593 3.608049,0.241 z"
   style="fill:#ffffff;fill-opacity:0;stroke-width:0.59214" /><path
   id="path502"
   d="m 40.897036,225.1784 c -6.171117,-2.37189 -12.597794,-10.18488 -12.579606,-15.29317 0.0071,-2.00167 0.934261,-2.95592 19.016117,-19.57239 10.454743,-9.60747 20.409737,-18.72484 22.122209,-20.26082 l 3.113584,-2.7927 2.282047,1.97268 2.282047,1.97267 -5.01324,4.66893 c -2.757281,2.56791 -6.406707,5.96559 -8.109833,7.55041 -3.622365,3.37072 -4.171985,4.63789 -2.872106,6.62175 0.704541,1.07527 1.479316,1.45136 2.989892,1.45136 1.794363,0 3.019241,-0.91328 10.211825,-7.61405 l 8.172898,-7.61405 5.614272,5.28067 c 10.672584,10.03841 12.797638,11.29453 14.996738,8.86456 2.19317,-2.42343 1.4084,-3.72887 -6.865873,-11.42119 -4.315221,-4.01173 -7.914586,-7.4423 -7.998592,-7.62352 -0.08401,-0.18121 3.446628,-3.64561 7.845855,-7.69867 6.9449,-6.39842 7.99859,-7.60954 7.99859,-9.19367 0,-2.36075 -0.93969,-3.2456 -3.44673,-3.2456 -1.776221,0 -2.999275,0.91127 -9.934194,7.40175 -4.349724,4.07096 -8.128975,7.40175 -8.398334,7.40175 -0.26936,0 -1.345669,-0.88309 -2.391799,-1.96243 l -1.902054,-1.96242 34.797701,-32.06481 34.7977,-32.064814 26.66258,-0.02082 c 23.15063,-0.01807 26.83593,-0.142233 27.97862,-0.942604 1.59307,-1.115826 1.7062,-3.278689 0.24087,-4.604797 -0.95227,-0.861793 -3.72097,-0.990731 -24.22204,-1.128019 l -23.14689,-0.155004 26.09377,-23.981672 26.09377,-23.981671 3.30951,0.03382 c 6.11896,0.06253 12.88686,4.789627 16.05942,11.216842 l 1.46144,2.9607 0.16741,50.020809 0.16741,50.02081 -6.44835,-6.35435 -6.44834,-6.35435 -43.45883,0.1519 -43.45883,0.15191 -0.15211,40.70962 -0.15212,40.70963 -42.185895,-0.0308 c -40.830474,-0.0298 -42.285647,-0.0692 -45.290509,-1.22413 z"
   style="fill:#ffffff;fill-opacity:0;stroke-width:0.59214" /><path
   id="path504"
   d="m 62.180348,190.19441 c -1.646484,-1.64648 -0.594885,-3.20093 7.431357,-10.98487 l 8.141926,-7.89612 -8.150038,-7.82039 c -8.233443,-7.90042 -9.233726,-9.42716 -7.253293,-11.07077 1.527035,-1.26733 3.421248,-0.2052 9.718342,5.44931 3.368094,3.02439 7.108644,6.34638 8.312332,7.3822 l 2.188523,1.8833 6.474167,-5.95902 c 7.552075,-6.95116 10.677949,-9.35431 12.167506,-9.35431 1.04134,0 2.30055,1.61179 2.30055,2.94469 0,0.3597 -3.663864,4.24594 -8.141923,8.63609 l -8.141926,7.98209 8.162941,7.83473 c 4.489618,4.3091 8.153488,8.24775 8.141928,8.75255 -0.0116,0.50479 -0.34077,1.23757 -0.73159,1.62838 -1.9256,1.92561 -4.354998,0.3952 -15.201289,-9.57612 l -4.95727,-4.55736 -1.649231,1.35259 c -0.907076,0.74392 -4.79713,4.21707 -8.644563,7.71809 -6.861199,6.24345 -8.60832,7.21507 -10.168449,5.65494 z"
   style="fill:#000000;fill-opacity:0;stroke-width:0.59214" /></svg>
