<?xml version="1.0" encoding="UTF-8" standalone="no"?>
<svg
   xmlns:dc="http://purl.org/dc/elements/1.1/"
   xmlns:cc="http://creativecommons.org/ns#"
   xmlns:rdf="http://www.w3.org/1999/02/22-rdf-syntax-ns#"
   xmlns:svg="http://www.w3.org/2000/svg"
   xmlns="http://www.w3.org/2000/svg"
   xmlns:sodipodi="http://sodipodi.sourceforge.net/DTD/sodipodi-0.dtd"
   xmlns:inkscape="http://www.inkscape.org/namespaces/inkscape"
   inkscape:export-ydpi="58.599998"
   inkscape:export-xdpi="58.599998"
   inkscape:export-filename="/home/blackflash/Documents/gpa-calc/public/img/calculator.png"
   version="1.1"
   id="Layer_1"
   x="0px"
   y="0px"
   viewBox="0 0 480 480"
   style="enable-background:new 0 0 480 480;"
   xml:space="preserve"
   sodipodi:docname="calculator.svg"
   inkscape:version="1.0 (4035a4fb49, 2020-05-01)"><metadata
   id="metadata162"><rdf:RDF><cc:Work
       rdf:about=""><dc:format>image/svg+xml</dc:format><dc:type
         rdf:resource="http://purl.org/dc/dcmitype/StillImage" /></cc:Work></rdf:RDF></metadata><defs
   id="defs160" /><sodipodi:namedview
   inkscape:lockguides="false"
   inkscape:document-rotation="0"
   pagecolor="#ffffff"
   bordercolor="#666666"
   borderopacity="1"
   objecttolerance="10"
   gridtolerance="10"
   guidetolerance="10"
   inkscape:pageopacity="0"
   inkscape:pageshadow="2"
   inkscape:window-width="1496"
   inkscape:window-height="872"
   id="namedview158"
   showgrid="false"
   inkscape:zoom="1.6887897"
   inkscape:cx="115.05845"
   inkscape:cy="129.5067"
   inkscape:window-x="-152"
   inkscape:window-y="143"
   inkscape:window-maximized="0"
   inkscape:current-layer="Layer_1" />
<path
   style="fill:#08446d;stroke-width:0.400957"
   d="m 228.4255,208.30525 c 0,9.85221 -9.69145,18.78079 -20.38546,18.78079 H 48.298283 c -10.694009,0 -20.385455,-8.92858 -20.385455,-18.78079 V 61.137757 c 0,-9.852214 9.691446,-18.780789 20.385455,-18.780789 H 208.04004 c 10.69401,0 20.38546,8.928575 20.38546,18.780789 z"
   id="path105" />
<path
   style="fill:#00233f;stroke-width:0.400957"
   d="m 208.04004,42.356968 c 10.69401,0 20.38546,8.928575 20.38546,18.780789 V 208.30525 c 0,9.85221 -9.69145,18.78079 -20.38546,18.78079 H 48.298283 c -10.694009,0 -20.385455,-8.92858 -20.385455,-18.78079"
   id="path107" />
<g
   id="g119"
   transform="matrix(0.41773473,0,0,0.38485222,27.912828,42.356968)">
	<path
   style="fill:#ffffff"
   d="m 136,200 c 0,4.8 -3.2,8 -8,8 v 0 c -4.8,0 -8,-3.2 -8,-8 V 72 c 0,-4.8 3.2,-8 8,-8 v 0 c 4.8,0 8,3.2 8,8 z"
   id="path109" />
	<path
   style="fill:#ffffff"
   d="M 68.8,144 C 64,144 60,140.8 60,136 v 0 c 0,-4.8 4,-8 8.8,-8 h 124 c 4.8,0 8.8,3.2 8.8,8 v 0 c 0,4.8 -4,8 -8.8,8 z"
   id="path111" />
	<path
   style="fill:#ffffff"
   d="m 287.2,144 c -4.8,0 -8.8,-3.2 -8.8,-8 v 0 c 0,-4.8 4,-8 8.8,-8 h 124 c 4.8,0 8.8,3.2 8.8,8 v 0 c 0,4.8 -4,8 -8.8,8 z"
   id="path113" />
	<path
   style="fill:#ffffff"
   d="m 92.8,385.6 c -3.2,3.2 -8.8,3.2 -12,0 v 0 c -3.2,-3.2 -3.2,-8.8 0,-12 l 87.2,-88 c 3.2,-3.2 8.8,-3.2 12,0 v 0 c 3.2,3.2 3.2,8.8 0,12 z"
   id="path115" />
	<path
   style="fill:#ffffff"
   d="m 80.8,297.6 c -3.2,-3.2 -3.2,-8.8 0,-12 v 0 c 3.2,-3.2 8.8,-3.2 12,0 l 87.2,87.2 c 3.2,3.2 3.2,8.8 0,12 v 0 c -3.2,3.2 -8.8,3.2 -12,0 z"
   id="path117" />
</g>
<g
   id="g125"
   transform="matrix(0.41773473,0,0,0.38485222,27.912828,42.356968)">
	<path
   style="fill:#e8961f"
   d="m 287.2,376 c -4.8,0 -8.8,-3.2 -8.8,-8 v 0 c 0,-4.8 4,-8 8.8,-8 h 124 c 4.8,0 8.8,3.2 8.8,8 v 0 c 0,4.8 -4,8 -8.8,8 z"
   id="path121" />
	<path
   style="fill:#e8961f"
   d="m 287.2,312 c -4.8,0 -8.8,-3.2 -8.8,-8 v 0 c 0,-4.8 4,-8 8.8,-8 h 124 c 4.8,0 8.8,3.2 8.8,8 v 0 c 0,4.8 -4,8 -8.8,8 z"
   id="path123" />
</g>
<g
   id="g127">
</g>
<g
   id="g129">
</g>
<g
   id="g131">
</g>
<g
   id="g133">
</g>
<g
   id="g135">
</g>
<g
   id="g137">
</g>
<g
   id="g139">
</g>
<g
   id="g141">
</g>
<g
   id="g143">
</g>
<g
   id="g145">
</g>
<g
   id="g147">
</g>
<g
   id="g149">
</g>
<g
   id="g151">
</g>
<g
   id="g153">
</g>
<g
   id="g155">
</g>
<g
   id="g406"
   transform="matrix(2.695352,0,0,2.639,110.94082,145.30497)"
   style="fill:#08446d;fill-opacity:1"><g
     id="g344"
     style="fill:#08446d;fill-opacity:1">
	<path
   id="path330"
   d="M 38.914,0 H 6.5 v 60 h 47 V 14.586 Z M 39.5,3.414 50.086,14 H 39.5 Z M 8.5,58 V 2 h 29 v 14 h 14 v 42 z"
   style="fill:#08446d;fill-opacity:1" />
	<path
   id="path332"
   d="m 42.5,21 h -16 c -0.552,0 -1,0.447 -1,1 0,0.553 0.448,1 1,1 h 16 c 0.552,0 1,-0.447 1,-1 0,-0.553 -0.448,-1 -1,-1 z"
   style="fill:#08446d;fill-opacity:1" />
	<path
   id="path334"
   d="m 22.875,18.219 -4.301,3.441 -1.367,-1.367 c -0.391,-0.391 -1.023,-0.391 -1.414,0 -0.391,0.391 -0.391,1.023 0,1.414 l 2,2 C 17.987,23.901 18.243,24 18.5,24 c 0.22,0 0.441,-0.072 0.624,-0.219 l 5,-4 c 0.432,-0.346 0.501,-0.975 0.156,-1.406 -0.344,-0.432 -0.974,-0.501 -1.405,-0.156 z"
   style="fill:#08446d;fill-opacity:1" />
	<path
   id="path336"
   d="m 42.5,32 h -16 c -0.552,0 -1,0.447 -1,1 0,0.553 0.448,1 1,1 h 16 c 0.552,0 1,-0.447 1,-1 0,-0.553 -0.448,-1 -1,-1 z"
   style="fill:#08446d;fill-opacity:1" />
	<path
   id="path338"
   d="m 22.875,29.219 -4.301,3.441 -1.367,-1.367 c -0.391,-0.391 -1.023,-0.391 -1.414,0 -0.391,0.391 -0.391,1.023 0,1.414 l 2,2 C 17.987,34.901 18.243,35 18.5,35 c 0.22,0 0.441,-0.072 0.624,-0.219 l 5,-4 c 0.432,-0.346 0.501,-0.975 0.156,-1.406 -0.344,-0.432 -0.974,-0.501 -1.405,-0.156 z"
   style="fill:#08446d;fill-opacity:1" />
	<path
   id="path340"
   d="m 42.5,43 h -16 c -0.552,0 -1,0.447 -1,1 0,0.553 0.448,1 1,1 h 16 c 0.552,0 1,-0.447 1,-1 0,-0.553 -0.448,-1 -1,-1 z"
   style="fill:#08446d;fill-opacity:1" />
	<path
   id="path342"
   d="m 22.875,40.219 -4.301,3.441 -1.367,-1.367 c -0.391,-0.391 -1.023,-0.391 -1.414,0 -0.391,0.391 -0.391,1.023 0,1.414 l 2,2 C 17.987,45.901 18.243,46 18.5,46 c 0.22,0 0.441,-0.072 0.624,-0.219 l 5,-4 c 0.432,-0.346 0.501,-0.975 0.156,-1.406 -0.344,-0.432 -0.974,-0.501 -1.405,-0.156 z"
   style="fill:#08446d;fill-opacity:1" />
</g><g
     id="g346"
     style="fill:#08446d;fill-opacity:1">
</g><g
     id="g348"
     style="fill:#08446d;fill-opacity:1">
</g><g
     id="g350"
     style="fill:#08446d;fill-opacity:1">
</g><g
     id="g352"
     style="fill:#08446d;fill-opacity:1">
</g><g
     id="g354"
     style="fill:#08446d;fill-opacity:1">
</g><g
     id="g356"
     style="fill:#08446d;fill-opacity:1">
</g><g
     id="g358"
     style="fill:#08446d;fill-opacity:1">
</g><g
     id="g360"
     style="fill:#08446d;fill-opacity:1">
</g><g
     id="g362"
     style="fill:#08446d;fill-opacity:1">
</g><g
     id="g364"
     style="fill:#08446d;fill-opacity:1">
</g><g
     id="g366"
     style="fill:#08446d;fill-opacity:1">
</g><g
     id="g368"
     style="fill:#08446d;fill-opacity:1">
</g><g
     id="g370"
     style="fill:#08446d;fill-opacity:1">
</g><g
     id="g372"
     style="fill:#08446d;fill-opacity:1">
</g><g
     id="g374"
     style="fill:#08446d;fill-opacity:1">
</g></g><path
   style="fill:#e8961f;fill-opacity:1;stroke-width:0.365297"
   d=""
   id="path426" /><path
   style="fill:#e8961f;fill-opacity:1;stroke-width:0.365297"
   d=""
   id="path428" /><path
   style="fill:#e8961f;fill-opacity:1;stroke-width:0.974258"
   d="m 192.74597,235.21972 c 6.09225,-0.16913 16.06136,-0.16913 22.15358,0 6.09222,0.16919 1.10768,0.30752 -11.07679,0.30752 -12.18447,0 -17.16902,-0.13828 -11.07679,-0.30752 z"
   id="path434" /><path
   style="fill:#e8961f;fill-opacity:1;stroke-width:0.974258"
   d="m 218.8515,235.24759 c 1.49665,-0.22165 3.71201,-0.21559 4.92301,0.0132 1.21102,0.22871 -0.0135,0.41001 -2.72117,0.40285 -2.70767,-0.008 -3.69849,-0.19448 -2.20184,-0.41605 z"
   id="path436" /><path
   style="fill:#e8961f;fill-opacity:1;stroke-width:0.974258"
   d="m 216.438,235.28075 c 0.71077,-0.27838 1.55996,-0.24403 1.88715,0.0759 0.32717,0.32042 -0.25444,0.54818 -1.29228,0.50639 -1.14701,-0.0461 -1.38032,-0.27472 -0.59487,-0.58252 z"
   id="path438" /><path
   style="fill:#e8961f;fill-opacity:1;stroke-width:0.974258"
   d="m 181.27956,234.09386 c -0.75583,-0.46859 -1.10205,-1.54645 -0.76936,-2.39534 0.53042,-1.35326 3.4,-1.54332 23.31256,-1.54332 19.91256,0 22.78214,0.19008 23.31256,1.54332 0.33268,0.84889 -0.0135,1.92675 -0.76937,2.39534 -1.793,1.11161 -43.29339,1.11161 -45.08639,0 z"
   id="path440" /><path
   style="fill:#e8961f;fill-opacity:1;stroke-width:0.974258"
   d="m 180.52993,262.4028 c -0.32953,-0.84073 -0.17735,-1.94156 0.33824,-2.44632 0.55479,-0.54319 10.15245,-0.81183 23.51506,-0.65821 21.83294,0.25091 22.57772,0.32313 22.57772,2.18753 0,1.86545 -0.74453,1.93642 -22.91596,2.18691 -20.16905,0.22776 -22.98777,0.0754 -23.51506,-1.26991 z"
   id="path444" /><path
   style="fill:#e8961f;fill-opacity:1;stroke-width:0.974258"
   d="m 180.37972,203.40366 c 0.30479,-1.54947 2.21517,-1.68692 23.44304,-1.68692 21.22786,0 23.13825,0.13747 23.44304,1.68692 0.30864,1.5692 -1.33029,1.68711 -23.44304,1.68711 -22.11275,0 -23.75169,-0.11804 -23.44304,-1.68711 z"
   id="path450" /><path
   style="fill:#e8961f;fill-opacity:1;stroke-width:0.365297"
   d=""
   id="path454" /><path
   style="fill:#e8961f;fill-opacity:1;stroke-width:0.365297"
   d=""
   id="path458" /><path
   style="fill:#e8961f;fill-opacity:1;stroke-width:0.974258"
   d="m 156.75493,204.80388 c -1.73082,-1.74842 -3.14696,-3.67504 -3.14696,-4.2812 0,-2.33524 2.242,-2.28485 4.79264,0.10762 l 2.66335,2.4984 6.06282,-4.80306 c 6.31928,-5.00627 9.15873,-5.98054 9.08177,-3.11605 -0.0431,1.60063 -13.52524,12.77325 -15.41374,12.77325 -0.4911,0 -2.30903,-1.43054 -4.03988,-3.17896 z"
   id="path462" /><path
   style="fill:#e8961f;fill-opacity:1;stroke-width:0.974258"
   d="m 156.78353,233.75332 c -1.74656,-1.76441 -3.17556,-3.70389 -3.17556,-4.31007 0,-2.33524 2.242,-2.28488 4.79264,0.10767 l 2.66335,2.49835 6.06282,-4.80309 c 6.34297,-5.02502 9.12708,-5.96931 9.12708,-3.09545 0,1.63379 -12.3998,11.96645 -15.04914,12.54046 -0.68511,0.14838 -2.67466,-1.17365 -4.42119,-2.93787 z"
   id="path464" /><path
   style="fill:#e8961f;fill-opacity:1;stroke-width:0.974258"
   d="m 156.2537,263.12013 c -4.67856,-4.78128 -2.90726,-8.64971 2.07944,-4.5414 l 2.92271,2.40783 6.18311,-4.83922 c 6.16144,-4.82238 8.06845,-5.42396 8.60556,-2.71469 0.33222,1.67567 -13.07823,12.3912 -15.50758,12.3912 -0.90062,0 -2.8281,-1.21663 -4.28324,-2.70372 z"
   id="path466" /><path
   style="fill:#e8961f;fill-opacity:1;stroke-width:0.974258"
   d="m 128.99289,224.37115 v -79.04949 h 43.08541 43.08542 l 19.92922,19.52999 19.92921,19.52989 v 59.51952 59.51953 h -63.01463 -63.01463 z m 121.10623,18.31635 v -55.91305 h -18.70747 -18.70746 v -18.32728 -18.3273 l -39.63028,0.25204 -39.63029,0.25204 -0.25445,72.78335 c -0.14015,40.03086 -0.0431,73.32559 0.21536,73.98842 0.36854,0.9452 13.0013,1.20501 58.59232,1.20501 h 58.12251 z m -3.93842,-60.48009 c 0,-0.9453 -27.82226,-28.20959 -28.7869,-28.20959 -0.41317,0 -0.75119,6.50715 -0.75119,14.46028 v 14.46019 h 14.76904 c 8.12299,0 14.76905,-0.31986 14.76905,-0.71088 z"
   id="path470" /><path
   style="fill:#e8961f;fill-opacity:1;stroke-width:0.592477"
   d="m 145.29989,96.397144 c -1.21997,-1.221377 -1.17554,-2.219587 0.15237,-3.422697 0.97439,-0.88283 3.79579,-0.981113 28.16557,-0.981113 17.53643,0 27.48644,0.216314 28.22807,0.613678 1.28027,0.685974 1.52261,2.921237 0.43478,4.010321 -0.53239,0.533 -7.64895,0.711381 -28.38043,0.711381 -24.36489,0 -27.781,-0.111266 -28.60036,-0.93157 z"
   id="path474" /><path
   style="fill:#e8961f;fill-opacity:1;stroke-width:0.592477"
   d="m 61.991415,190.4635 c -2.146434,-1.74005 -1.141922,-3.2344 7.62029,-11.33558 4.315221,-3.98962 7.845856,-7.45251 7.845856,-7.69522 0,-0.24271 -3.596098,-3.72997 -7.991328,-7.74943 -4.39523,-4.01954 -8.140474,-7.77856 -8.322765,-8.35357 -0.570858,-1.80068 0.770258,-3.46155 2.795145,-3.46155 1.479601,0 2.909269,0.98723 7.381245,5.09691 3.050421,2.80323 6.814666,6.23868 8.36499,7.63409 l 2.818772,2.53721 8.241296,-7.63407 c 8.800323,-8.15199 10.530104,-9.04242 12.393094,-6.37957 1.31704,1.8825 0.52851,2.95231 -7.992051,10.84281 -4.19211,3.88214 -7.622018,7.25547 -7.622018,7.4963 0,0.24083 3.579496,3.71808 7.954435,7.72724 4.37494,4.00912 8.075964,7.75464 8.224504,8.32328 0.41883,1.60347 -1.22947,3.48413 -3.0374,3.46558 -1.208054,-0.0124 -3.604662,-1.86448 -9.88259,-7.63723 l -8.287782,-7.62088 -5.817979,5.41415 c -7.870052,7.32373 -11.622891,10.45312 -12.535885,10.45312 -0.420115,0 -1.387538,-0.5056 -2.149829,-1.12359 z"
   id="path476" /><path
   style="fill:#e8961f;fill-opacity:1;stroke-width:0.592477"
   d="m 79.233981,121.0415 c -1.101173,-1.10242 -1.18428,-1.97604 -1.18428,-12.4492 V 97.328714 H 66.545266 c -9.669058,0 -11.652885,-0.14862 -12.434941,-0.931571 -1.18108,-1.182439 -1.18108,-2.2898 0,-3.472231 0.782056,-0.782957 2.765883,-0.931578 12.434941,-0.931578 H 78.049701 V 80.729763 c 0,-10.473152 0.08311,-11.346789 1.18428,-12.449225 1.425236,-1.426873 2.273925,-1.482442 4.013225,-0.26279 1.283223,0.899836 1.316035,1.210223 1.316035,12.449215 V 91.993334 H 97.03711 c 7.46618,0 12.93368,0.246372 13.61922,0.613678 1.28028,0.685974 1.52262,2.921237 0.43478,4.010321 -0.5092,0.509787 -4.36867,0.711381 -13.619216,0.711381 H 84.563241 v 11.468136 c 0,10.35722 -0.104893,11.56312 -1.082871,12.4492 -1.439055,1.30382 -2.805507,1.23802 -4.246389,-0.20455 z"
   id="path478" /><path
   style="fill:#000000;fill-opacity:0;stroke-width:0.592477"
   d="m 40.897036,225.38834 c -6.171117,-2.37462 -12.597794,-10.19657 -12.579606,-15.31073 0.0071,-2.00398 0.934261,-2.95931 19.016117,-19.59487 10.454743,-9.6185 20.409737,-18.74633 22.122209,-20.28408 l 3.113584,-2.7959 2.282047,1.97492 2.282047,1.97495 -5.01324,4.6743 c -2.757281,2.57084 -6.406707,5.97241 -8.109833,7.55907 -3.622365,3.37458 -4.171985,4.64322 -2.872106,6.62936 0.704541,1.0765 1.479316,1.45296 2.989892,1.45296 1.794363,0 3.019241,-0.91433 10.211825,-7.62272 l 8.172898,-7.6228 5.614272,5.28672 c 10.672584,10.04995 12.797638,11.30751 14.996738,8.87475 2.19317,-2.42622 1.4084,-3.73316 -6.865873,-11.43432 -4.315221,-4.01631 -7.914586,-7.45084 -7.998592,-7.63227 -0.08401,-0.18142 3.446628,-3.64987 7.845855,-7.70751 6.9449,-6.40576 7.99859,-7.61826 7.99859,-9.20422 0,-2.36354 -0.93969,-3.24931 -3.44673,-3.24931 -1.776221,0 -2.999275,0.91222 -9.934194,7.41022 -4.349724,4.07564 -8.128975,7.41027 -8.398334,7.41027 -0.26936,0 -1.345669,-0.88411 -2.391799,-1.96468 l -1.902054,-1.96474 34.797701,-32.10157 34.7977,-32.101649 26.66258,-0.02085 c 23.15063,-0.0181 26.83593,-0.142392 27.97862,-0.943686 1.59307,-1.117099 1.7062,-3.282451 0.24087,-4.610081 -0.95227,-0.862778 -3.72097,-0.991872 -24.22204,-1.12931 l -23.14689,-0.15519 26.09377,-24.009201 26.09377,-24.009211 3.30951,0.03385 c 6.11896,0.06259 12.88686,4.795126 16.05942,11.229723 l 1.46144,2.964098 0.16741,50.078267 0.16741,50.07825 -6.44835,-6.36168 -6.44834,-6.36163 -43.45883,0.15209 -43.45883,0.15206 -0.15211,40.75638 -0.15212,40.75639 -42.185895,-0.0308 c -40.830474,-0.0298 -42.285647,-0.0693 -45.290509,-1.22555 z"
   id="path484" /><path
   style="fill:#000000;fill-opacity:0;stroke-width:0.592477"
   d="m 40.897036,225.38834 c -6.171117,-2.37462 -12.597794,-10.19657 -12.579606,-15.31073 0.0071,-2.00398 0.934261,-2.95931 19.016117,-19.59487 10.454743,-9.6185 20.409737,-18.74633 22.122209,-20.28408 l 3.113584,-2.7959 2.282047,1.97492 2.282047,1.97495 -5.01324,4.6743 c -2.757281,2.57084 -6.406707,5.97241 -8.109833,7.55907 -3.622365,3.37458 -4.171985,4.64322 -2.872106,6.62936 0.704541,1.0765 1.479316,1.45296 2.989892,1.45296 1.794363,0 3.019241,-0.91433 10.211825,-7.62272 l 8.172898,-7.6228 5.614272,5.28672 c 10.672584,10.04995 12.797638,11.30751 14.996738,8.87475 2.19317,-2.42622 1.4084,-3.73316 -6.865873,-11.43432 -4.315221,-4.01631 -7.914586,-7.45084 -7.998592,-7.63227 -0.08401,-0.18142 3.446628,-3.64987 7.845855,-7.70751 6.9449,-6.40576 7.99859,-7.61826 7.99859,-9.20422 0,-2.36354 -0.93969,-3.24931 -3.44673,-3.24931 -1.776221,0 -2.999275,0.91222 -9.934194,7.41022 -4.349724,4.07564 -8.128975,7.41027 -8.398334,7.41027 -0.26936,0 -1.345669,-0.88411 -2.391799,-1.96468 l -1.902054,-1.96474 34.797701,-32.10157 34.7977,-32.101649 26.66258,-0.02085 c 23.15063,-0.0181 26.83593,-0.142392 27.97862,-0.943686 1.59307,-1.117099 1.7062,-3.282451 0.24087,-4.610081 -0.95227,-0.862778 -3.72097,-0.991872 -24.22204,-1.12931 l -23.14689,-0.15519 26.09377,-24.009201 26.09377,-24.009211 3.30951,0.03385 c 6.11896,0.06259 12.88686,4.795126 16.05942,11.229723 l 1.46144,2.964098 0.16741,50.078267 0.16741,50.07825 -6.44835,-6.36168 -6.44834,-6.36163 -43.45883,0.15209 -43.45883,0.15206 -0.15211,40.75638 -0.15212,40.75639 -42.185895,-0.0308 c -40.830474,-0.0298 -42.285647,-0.0693 -45.290509,-1.22555 z"
   id="path486" /><path
   style="fill:#000000;fill-opacity:0;stroke-width:0.592477"
   d="m 40.897036,225.38834 c -6.171117,-2.37462 -12.597794,-10.19657 -12.579606,-15.31073 0.0071,-2.00398 0.934261,-2.95931 19.016117,-19.59487 10.454743,-9.6185 20.409737,-18.74633 22.122209,-20.28408 l 3.113584,-2.7959 2.282047,1.97492 2.282047,1.97495 -5.01324,4.6743 c -2.757281,2.57084 -6.406707,5.97241 -8.109833,7.55907 -3.622365,3.37458 -4.171985,4.64322 -2.872106,6.62936 0.704541,1.0765 1.479316,1.45296 2.989892,1.45296 1.794363,0 3.019241,-0.91433 10.211825,-7.62272 l 8.172898,-7.6228 5.614272,5.28672 c 10.672584,10.04995 12.797638,11.30751 14.996738,8.87475 2.19317,-2.42622 1.4084,-3.73316 -6.865873,-11.43432 -4.315221,-4.01631 -7.914586,-7.45084 -7.998592,-7.63227 -0.08401,-0.18142 3.446628,-3.64987 7.845855,-7.70751 6.9449,-6.40576 7.99859,-7.61826 7.99859,-9.20422 0,-2.36354 -0.93969,-3.24931 -3.44673,-3.24931 -1.776221,0 -2.999275,0.91222 -9.934194,7.41022 -4.349724,4.07564 -8.128975,7.41027 -8.398334,7.41027 -0.26936,0 -1.345669,-0.88411 -2.391799,-1.96468 l -1.902054,-1.96474 34.797701,-32.10157 34.7977,-32.101649 26.66258,-0.02085 c 23.15063,-0.0181 26.83593,-0.142392 27.97862,-0.943686 1.59307,-1.117099 1.7062,-3.282451 0.24087,-4.610081 -0.95227,-0.862778 -3.72097,-0.991872 -24.22204,-1.12931 l -23.14689,-0.15519 26.09377,-24.009201 26.09377,-24.009211 3.30951,0.03385 c 6.11896,0.06259 12.88686,4.795126 16.05942,11.229723 l 1.46144,2.964098 0.16741,50.078267 0.16741,50.07825 -6.44835,-6.36168 -6.44834,-6.36163 -43.45883,0.15209 -43.45883,0.15206 -0.15211,40.75638 -0.15212,40.75639 -42.185895,-0.0308 c -40.830474,-0.0298 -42.285647,-0.0693 -45.290509,-1.22555 z"
   id="path488" /><path
   style="fill:#000000;fill-opacity:0;stroke-width:0.592477"
   d="m 160.54563,97.558659 c 7.43139,-0.09414 19.42223,-0.09403 26.6463,2.36e-4 7.22408,0.09427 1.14385,0.171271 -13.51161,0.171142 -14.65547,-1.3e-4 -20.56608,-0.07725 -13.13469,-0.171378 z"
   id="path490" /><path
   style="fill:#ffffff;fill-opacity:0;stroke-width:0.592477"
   d="m 145.7017,96.424557 c -1.05312,-0.42543 -0.9159,-2.280393 0.23967,-3.239924 0.79913,-0.663554 5.99552,-0.813609 28.17452,-0.813609 25.97428,0 27.23136,0.05023 28.01208,1.119323 0.5838,0.799453 0.64878,1.434749 0.22736,2.223076 -0.56307,1.053314 -1.85396,1.101613 -28.25174,1.056954 -15.21394,-0.02574 -27.99479,-0.181364 -28.40189,-0.34582 z"
   id="path492" /><path
   style="fill:#ffffff;fill-opacity:0;stroke-width:0.592477"
   d="m 145.7017,96.424557 c -1.05312,-0.42543 -0.9159,-2.280393 0.23967,-3.239924 0.79913,-0.663554 5.99552,-0.813609 28.17452,-0.813609 25.97428,0 27.23136,0.05023 28.01208,1.119323 0.5838,0.799453 0.64878,1.434749 0.22736,2.223076 -0.56307,1.053314 -1.85396,1.101613 -28.25174,1.056954 -15.21394,-0.02574 -27.99479,-0.181364 -28.40189,-0.34582 z"
   id="path494" /><path
   style="fill:#ffffff;fill-opacity:0;stroke-width:0.592477"
   d="m 40.897036,225.38834 c -6.171117,-2.37462 -12.597794,-10.19657 -12.579606,-15.31073 0.0071,-2.00398 0.934261,-2.95931 19.016117,-19.59487 10.454743,-9.6185 20.409737,-18.74633 22.122209,-20.28408 l 3.113584,-2.7959 2.282047,1.97492 2.282047,1.97495 -5.01324,4.6743 c -2.757281,2.57084 -6.406707,5.97241 -8.109833,7.55907 -3.622365,3.37458 -4.171985,4.64322 -2.872106,6.62936 0.704541,1.0765 1.479316,1.45296 2.989892,1.45296 1.794363,0 3.019241,-0.91433 10.211825,-7.62272 l 8.172898,-7.6228 5.614272,5.28672 c 10.672584,10.04995 12.797638,11.30751 14.996738,8.87475 2.19317,-2.42622 1.4084,-3.73316 -6.865873,-11.43432 -4.315221,-4.01631 -7.914586,-7.45084 -7.998592,-7.63227 -0.08401,-0.18142 3.446628,-3.64987 7.845855,-7.70751 6.9449,-6.40576 7.99859,-7.61826 7.99859,-9.20422 0,-2.36354 -0.93969,-3.24931 -3.44673,-3.24931 -1.776221,0 -2.999275,0.91222 -9.934194,7.41022 -4.349724,4.07564 -8.128975,7.41027 -8.398334,7.41027 -0.26936,0 -1.345669,-0.88411 -2.391799,-1.96468 l -1.902054,-1.96474 34.797701,-32.10157 34.7977,-32.101649 26.66258,-0.02085 c 23.15063,-0.0181 26.83593,-0.142392 27.97862,-0.943686 1.59307,-1.117099 1.7062,-3.282451 0.24087,-4.610081 -0.95227,-0.862778 -3.72097,-0.991872 -24.22204,-1.12931 l -23.14689,-0.15519 26.09377,-24.009201 26.09377,-24.009211 3.30951,0.03385 c 6.11896,0.06259 12.88686,4.795126 16.05942,11.229723 l 1.46144,2.964098 0.16741,50.078267 0.16741,50.07825 -6.44835,-6.36168 -6.44834,-6.36163 -43.45883,0.15209 -43.45883,0.15206 -0.15211,40.75638 -0.15212,40.75639 -42.185895,-0.0308 c -40.830474,-0.0298 -42.285647,-0.0693 -45.290509,-1.22555 z"
   id="path496" /><path
   style="fill:#ffffff;fill-opacity:0;stroke-width:0.592477"
   d="m 28.309938,133.20823 c 0,-68.256132 0.08553,-74.965629 0.989694,-77.634643 1.414064,-4.174202 7.048464,-9.712642 11.62108,-11.423155 l 3.432604,-1.284058 81.365144,0.150296 81.36514,0.150299 -26.08445,24.009211 -26.08445,24.009201 -3.64427,0.151631 c -4.95596,0.206209 -6.16574,0.54774 -6.91676,1.952639 -0.84938,1.588914 -0.23106,3.358617 1.49224,4.270942 1.34237,0.710662 0.0922,1.939549 -33.0176,32.454507 -18.927044,17.44367 -34.561729,31.78084 -34.743743,31.86025 -0.182015,0.0793 -2.956431,-2.25479 -6.165369,-5.18715 -4.930799,-4.50584 -6.143847,-5.33156 -7.832205,-5.33156 -2.305549,0 -4.147851,2.12329 -3.53088,4.06941 0.202853,0.63988 2.899971,3.48951 5.993595,6.33251 3.093624,2.84291 5.547765,5.35217 5.453647,5.57611 -0.09412,0.22389 -8.831173,8.36538 -19.415676,18.09219 -10.584503,9.72697 -20.377019,18.76739 -21.761146,20.08986 l -2.516595,2.4046 z m 54.663846,-10.98862 c 0.711363,-0.37478 1.489154,-0.97501 1.728424,-1.33382 0.239271,-0.35869 0.439119,-5.65414 0.444106,-11.7676 l 0.0091,-11.11538 h 12.303184 c 10.176982,0 12.530612,-0.159483 13.619222,-0.922845 1.55837,-1.092776 1.70068,-3.004424 0.33605,-4.514052 -0.89109,-0.985778 -2.12655,-1.084114 -13.619221,-1.084114 H 85.155381 V 80.218214 c 0,-10.473149 -0.08311,-11.346786 -1.18428,-12.449224 -1.422683,-1.424316 -2.834108,-1.504847 -4.605366,-0.262786 -1.283223,0.899831 -1.316034,1.210221 -1.316034,12.449212 V 91.481799 H 66.50297 c -10.757211,0 -11.627707,0.08107 -12.731011,1.185631 -1.49856,1.50029 -1.49856,2.649459 0,4.149749 1.103304,1.104562 1.9738,1.185631 12.731011,1.185631 h 11.546731 v 11.52639 c 0,11.23899 0.03281,11.54938 1.316034,12.44921 1.573836,1.10355 1.926813,1.12721 3.608049,0.2412 z"
   id="path498" /><path
   style="fill:#ffffff;fill-opacity:0;stroke-width:0.592477"
   d="m 40.897036,225.38834 c -6.171117,-2.37462 -12.597794,-10.19657 -12.579606,-15.31073 0.0071,-2.00398 0.934261,-2.95931 19.016117,-19.59487 10.454743,-9.6185 20.409737,-18.74633 22.122209,-20.28408 l 3.113584,-2.7959 2.282047,1.97492 2.282047,1.97495 -5.01324,4.6743 c -2.757281,2.57084 -6.406707,5.97241 -8.109833,7.55907 -3.622365,3.37458 -4.171985,4.64322 -2.872106,6.62936 0.704541,1.0765 1.479316,1.45296 2.989892,1.45296 1.794363,0 3.019241,-0.91433 10.211825,-7.62272 l 8.172898,-7.6228 5.614272,5.28672 c 10.672584,10.04995 12.797638,11.30751 14.996738,8.87475 2.19317,-2.42622 1.4084,-3.73316 -6.865873,-11.43432 -4.315221,-4.01631 -7.914586,-7.45084 -7.998592,-7.63227 -0.08401,-0.18142 3.446628,-3.64987 7.845855,-7.70751 6.9449,-6.40576 7.99859,-7.61826 7.99859,-9.20422 0,-2.36354 -0.93969,-3.24931 -3.44673,-3.24931 -1.776221,0 -2.999275,0.91222 -9.934194,7.41022 -4.349724,4.07564 -8.128975,7.41027 -8.398334,7.41027 -0.26936,0 -1.345669,-0.88411 -2.391799,-1.96468 l -1.902054,-1.96474 34.797701,-32.10157 34.7977,-32.101649 26.66258,-0.02085 c 23.15063,-0.0181 26.83593,-0.142392 27.97862,-0.943686 1.59307,-1.117099 1.7062,-3.282451 0.24087,-4.610081 -0.95227,-0.862778 -3.72097,-0.991872 -24.22204,-1.12931 l -23.14689,-0.15519 26.09377,-24.009201 26.09377,-24.009211 3.30951,0.03385 c 6.11896,0.06259 12.88686,4.795126 16.05942,11.229723 l 1.46144,2.964098 0.16741,50.078267 0.16741,50.07825 -6.44835,-6.36168 -6.44834,-6.36163 -43.45883,0.15209 -43.45883,0.15206 -0.15211,40.75638 -0.15212,40.75639 -42.185895,-0.0308 c -40.830474,-0.0298 -42.285647,-0.0693 -45.290509,-1.22555 z"
   id="path502" /><path
   style="fill:#000000;fill-opacity:0;stroke-width:0.592477"
   d="m 62.180348,190.36409 c -1.646484,-1.64834 -0.594885,-3.20452 7.431357,-10.99738 l 8.141926,-7.90521 -8.150038,-7.82942 c -8.233443,-7.90943 -9.233726,-9.43794 -7.253293,-11.08344 1.527035,-1.26876 3.421248,-0.20544 9.718342,5.45558 3.368094,3.02786 7.108644,6.35366 8.312332,7.39068 l 2.188523,1.88546 6.474167,-5.96585 c 7.552075,-6.95917 10.677949,-9.36508 12.167506,-9.36508 1.04134,0 2.30055,1.61365 2.30055,2.94808 0,0.36012 -3.663864,4.25083 -8.141923,8.64601 l -8.141926,7.99126 8.162941,7.84372 c 4.489618,4.31404 8.153488,8.25722 8.141928,8.76255 -0.0116,0.50543 -0.34077,1.23905 -0.73159,1.63031 -1.9256,1.92783 -4.354998,0.39565 -15.201289,-9.58712 l -4.95727,-4.56261 -1.649231,1.35415 c -0.907076,0.7448 -4.79713,4.22193 -8.644563,7.72697 -6.861199,6.25061 -8.60832,7.22333 -10.168449,5.66134 z"
   id="path504" /></svg>
