<?xml version="1.0" encoding="iso-8859-1"?>
<!-- Generator: Adobe Illustrator 19.0.0, SVG Export Plug-In . SVG Version: 6.00 Build 0)  -->
<svg version="1.1" id="Capa_1" xmlns="http://www.w3.org/2000/svg" xmlns:xlink="http://www.w3.org/1999/xlink" x="0px" y="0px"
	 viewBox="0 0 512 512" style="enable-background:new 0 0 512 512;" xml:space="preserve">
<g>
	<g>
		<path d="M332.124,11.51C307.568,3.873,281.956,0,256,0C187.62,0,123.333,26.629,74.98,74.98C26.629,123.333,0,187.62,0,256
			c0,51.3,15.12,100.796,43.725,143.137c27.91,41.312,66.856,73.382,112.625,92.741c0.956,0.404,1.948,0.596,2.924,0.596
			c2.929,0,5.712-1.723,6.925-4.589c1.617-3.823-0.171-8.232-3.994-9.848c-43.085-18.223-79.748-48.416-106.027-87.313
			C29.259,350.876,15.029,304.29,15.029,256c0-64.365,25.065-124.879,70.579-170.392C131.121,40.095,191.635,15.03,256,15.03
			c24.441,0,48.551,3.644,71.66,10.832c3.961,1.231,8.175-0.98,9.408-4.944C338.3,16.955,336.087,12.743,332.124,11.51z"/>
	</g>
</g>
<g>
	<g>
		<path d="M471.046,117.054c-26.093-40.303-62.793-72.391-106.133-92.795c-3.755-1.767-8.231-0.158-10,3.598
			c-1.768,3.755-0.157,8.232,3.598,10c40.799,19.207,75.351,49.418,99.918,87.364C483.642,164.165,496.97,209.388,496.97,256
			c0,64.365-25.066,124.878-70.579,170.392C380.879,471.905,320.365,496.97,256,496.97c-21.875,0-43.552-2.93-64.428-8.707
			c-3.998-1.103-8.139,1.238-9.247,5.239c-1.107,3.999,1.238,8.139,5.238,9.247C209.745,508.887,232.771,512,256,512
			c68.38,0,132.667-26.628,181.019-74.98C485.371,388.667,512,324.38,512,256C512,206.484,497.839,158.437,471.046,117.054z"/>
	</g>
</g>
<g>
	<g>
		<path d="M329.473,318.844L266.627,256l62.844-62.845c2.935-2.934,2.935-7.693,0-10.627c-2.934-2.934-7.693-2.934-10.627,0
			L256,245.373l-62.845-62.844c-2.934-2.934-7.693-2.934-10.627,0c-2.935,2.934-2.935,7.693,0,10.627L245.372,256l-62.844,62.844
			c-2.935,2.936-2.935,7.693,0,10.628c1.467,1.467,3.39,2.201,5.314,2.201c1.924,0,3.846-0.734,5.314-2.201L256,266.627
			l62.845,62.845c1.467,1.467,3.39,2.201,5.314,2.201c1.924,0,3.846-0.734,5.314-2.201
			C332.408,326.537,332.408,321.779,329.473,318.844z"/>
	</g>
</g>
<g>
</g>
<g>
</g>
<g>
</g>
<g>
</g>
<g>
</g>
<g>
</g>
<g>
</g>
<g>
</g>
<g>
</g>
<g>
</g>
<g>
</g>
<g>
</g>
<g>
</g>
<g>
</g>
<g>
</g>
</svg>
